<svg width="20" height="20" viewBox="0 0 20 20" fill="none" xmlns="http://www.w3.org/2000/svg">
<g clip-path="url(#clip0_54_1388)">
<path d="M6.53125 0.691016C6.74219 0.2675 7.17578 0 7.64844 0H12.3516C12.8242 0 13.2578 0.2675 13.4688 0.691016L13.75 1.25H17.5C18.1914 1.25 18.75 1.80977 18.75 2.5C18.75 3.19023 18.1914 3.75 17.5 3.75H2.5C1.80977 3.75 1.25 3.19023 1.25 2.5C1.25 1.80977 1.80977 1.25 2.5 1.25H6.25L6.53125 0.691016ZM16.6719 18.207C16.6094 19.2305 15.793 20 14.8008 20H5.19922C4.20898 20 3.38945 19.2305 3.32773 18.207L2.46484 5H17.5L16.6719 18.207Z" fill="#8A8A8A"/>
</g>
<defs>
<clipPath id="clip0_54_1388">
<rect width="20" height="20" fill="white"/>
</clipPath>
</defs>
</svg>
