<svg width="24" height="24" viewBox="0 0 24 24" fill="none" xmlns="http://www.w3.org/2000/svg">
<g clip-path="url(#clip0_54_1172)">
<path d="M10 4C8.93913 4 7.92172 4.42143 7.17157 5.17157C6.42143 5.92172 6 6.93913 6 8C6 9.06087 6.42143 10.0783 7.17157 10.8284C7.92172 11.5786 8.93913 12 10 12C11.0609 12 12.0783 11.5786 12.8284 10.8284C13.5786 10.0783 14 9.06087 14 8C14 6.93913 13.5786 5.92172 12.8284 5.17157C12.0783 4.42143 11.0609 4 10 4ZM10.35 14.01C7.62 13.91 2 15.27 2 18V20H11.54C9.07 17.24 10.31 14.11 10.35 14.01ZM19.43 18.02C19.79 17.43 20 16.74 20 16C20 13.79 18.21 12 16 12C13.79 12 12 13.79 12 16C12 18.21 13.79 20 16 20C16.74 20 17.43 19.78 18.02 19.43L20.59 22L22 20.59L19.43 18.02ZM16 18C14.9 18 14 17.1 14 16C14 14.9 14.9 14 16 14C17.1 14 18 14.9 18 16C18 17.1 17.1 18 16 18Z" fill="white"/>
</g>
<defs>
<clipPath id="clip0_54_1172">
<rect width="24" height="24" fill="white"/>
</clipPath>
</defs>
</svg>
