<svg width="149" height="32" viewBox="0 0 149 32" fill="none" xmlns="http://www.w3.org/2000/svg">
<g filter="url(#filter0_d_54_1618)">
<path d="M144.5 0.5H4.5C2.29086 0.5 0.5 2.29086 0.5 4.5V27.5C0.5 29.7091 2.29086 31.5 4.5 31.5H144.5C146.709 31.5 148.5 29.7091 148.5 27.5V4.5C148.5 2.29086 146.709 0.5 144.5 0.5Z" fill="#F8FAFC"/>
<path d="M144.5 0.5H4.5C2.29086 0.5 0.5 2.29086 0.5 4.5V27.5C0.5 29.7091 2.29086 31.5 4.5 31.5H144.5C146.709 31.5 148.5 29.7091 148.5 27.5V4.5C148.5 2.29086 146.709 0.5 144.5 0.5Z" stroke="#A1B4C6"/>
</g>
<defs>
<filter id="filter0_d_54_1618" x="0" y="0" width="149" height="32" filterUnits="userSpaceOnUse" color-interpolation-filters="sRGB">
<feFlood flood-opacity="0" result="BackgroundImageFix"/>
<feColorMatrix in="SourceAlpha" type="matrix" values="0 0 0 0 0 0 0 0 0 0 0 0 0 0 0 0 0 0 127 0" result="hardAlpha"/>
<feOffset/>
<feComposite in2="hardAlpha" operator="out"/>
<feColorMatrix type="matrix" values="0 0 0 0 0 0 0 0 0 0 0 0 0 0 0 0 0 0 0.08 0"/>
<feBlend mode="normal" in2="BackgroundImageFix" result="effect1_dropShadow_54_1618"/>
<feBlend mode="normal" in="SourceGraphic" in2="effect1_dropShadow_54_1618" result="shape"/>
</filter>
</defs>
</svg>
