<svg width="19" height="19" viewBox="0 0 19 19" fill="none" xmlns="http://www.w3.org/2000/svg">
<path d="M0 15.0422V19H3.9578L15.6307 7.32714L11.6729 3.36934L0 15.0422ZM18.6914 4.26645C18.7892 4.16881 18.8668 4.05283 18.9198 3.92515C18.9727 3.79747 19 3.66061 19 3.52238C19 3.38415 18.9727 3.24729 18.9198 3.11961C18.8668 2.99193 18.7892 2.87595 18.6914 2.77831L16.2217 0.308649C16.124 0.210809 16.0081 0.133186 15.8804 0.0802234C15.7527 0.0272613 15.6158 0 15.4776 0C15.3394 0 15.2025 0.0272613 15.0748 0.0802234C14.9472 0.133186 14.8312 0.210809 14.7336 0.308649L12.8022 2.24005L16.7599 6.19785L18.6914 4.26645Z" fill="#8A8A8A"/>
</svg>
