<svg width="1305" height="659" viewBox="0 0 1305 659" fill="none" xmlns="http://www.w3.org/2000/svg">
<g filter="url(#filter0_d_54_1138)">
<path d="M1295 0H10C4.47715 0 0 4.47715 0 10V649C0 654.523 4.47715 659 10 659H1295C1300.52 659 1305 654.523 1305 649V10C1305 4.47715 1300.52 0 1295 0Z" fill="#FDFEFE"/>
<path d="M1295 0H10C4.47715 0 0 4.47715 0 10V649C0 654.523 4.47715 659 10 659H1295C1300.52 659 1305 654.523 1305 649V10C1305 4.47715 1300.52 0 1295 0Z" stroke="#E5E7EB"/>
</g>
<defs>
<filter id="filter0_d_54_1138" x="0" y="0" width="1305" height="659" filterUnits="userSpaceOnUse" color-interpolation-filters="sRGB">
<feFlood flood-opacity="0" result="BackgroundImageFix"/>
<feColorMatrix in="SourceAlpha" type="matrix" values="0 0 0 0 0 0 0 0 0 0 0 0 0 0 0 0 0 0 127 0" result="hardAlpha"/>
<feOffset/>
<feComposite in2="hardAlpha" operator="out"/>
<feColorMatrix type="matrix" values="0 0 0 0 0 0 0 0 0 0 0 0 0 0 0 0 0 0 0.08 0"/>
<feBlend mode="normal" in2="BackgroundImageFix" result="effect1_dropShadow_54_1138"/>
<feBlend mode="normal" in="SourceGraphic" in2="effect1_dropShadow_54_1138" result="shape"/>
</filter>
</defs>
</svg>
